#!OML:ASF F:\VICON\USERDATA\INSTALL\rory3\rory3.ASF
:FULLY-SPECIFIED
:DEGREES
778
root 5.26049 16.9612 1.90098 7.81326 -14.7493 -6.80194
lowerback 21.5012 -0.585982 4.42877
upperback 4.84446 0.254194 1.31305
thorax -6.70136 0.0365555 -1.17079
lowerneck -14.8818 -0.590678 -2.7009
upperneck 38.1716 0.212007 -1.13597
head 16.1096 -0.539947 0.00335683
rclavicle -2.74323e-014 2.32578e-014
rhumerus -34.305 -7.91722 -17.2357
rradius 35.0152
rwrist 3.91231
rhand -19.5401 -45.5205
rfingers 7.12502
rthumb 6.78381 -75.3918
lclavicle -2.74323e-014 2.32578e-014
lhumerus -35.5578 7.46298 13.1173
lradius 28.4446
lwrist 16.4649
lhand -23.5541 -30.2831
lfingers 7.12502
lthumb 2.90803 -0.323171
rfemur -100.46 0.522044 27.5447
rtibia 95.7662
rfoot 47.8575 2.00953
rtoes -5.50464
lfemur -28.9549 4.68048 -24.2732
ltibia 41.0316
lfoot -17.2537 11.0204
ltoes 15.2102
779
root 5.25956 16.9617 1.89873 7.78797 -14.7323 -6.79985
lowerback 21.5282 -0.575496 4.41773
upperback 4.8465 0.266823 1.31241
thorax -6.71269 0.0426005 -1.16858
lowerneck -14.9632 -0.587306 -2.62809
upperneck 38.2778 0.214221 -1.17851
head 16.1845 -0.536134 -0.0290014
rclavicle 2.08724e-014 2.50469e-014
rhumerus -34.3666 -7.96754 -17.2042
rradius 35.1585
rwrist 3.65147
rhand -19.415 -46.0917
rfingers 7.12502
rthumb 6.90453 -75.9591
lclavicle 2.08724e-014 2.50469e-014
lhumerus -35.4216 7.58835 13.0984
lradius 28.2941
lwrist 16.3032
lhand -24.2105 -29.3297
lfingers 7.12502
lthumb 2.27406 0.637929
rfemur -100.456 0.52862 27.5287
rtibia 95.8327
rfoot 47.8203 2.03611
rtoes -5.41836
lfemur -28.9445 4.69732 -24.2661
ltibia 41.0382
lfoot -17.2591 10.9358
ltoes 15.2518
780
root 5.25942 16.9609 1.8966 7.77588 -14.7375 -6.75997
lowerback 21.5125 -0.551879 4.37866
upperback 4.84074 0.286823 1.29218
thorax -6.70997 0.0528132 -1.1736
lowerneck -14.8487 -0.613406 -2.66282
upperneck 38.2288 0.14525 -1.08741
head 16.131 -0.555838 0.00563735
rclavicle 1.51076e-014 -2.94201e-014
rhumerus -34.4115 -8.05644 -17.1806
rradius 35.1366
rwrist 3.6308
rhand -19.326 -46.2274
rfingers 7.12502
rthumb 6.99049 -76.092
lclavicle 1.51076e-014 -2.94201e-014
lhumerus -35.3804 7.57411 13.1138
lradius 28.3293
lwrist 16.2752
lhand -24.6404 -27.6355
lfingers 7.12502
lthumb 1.85889 2.33613
rfemur -100.468 0.550634 27.4751
rtibia 95.8385
rfoot 47.8962 2.06888
rtoes -5.33156
lfemur -28.9603 4.66986 -24.3012
ltibia 41.0484
lfoot -17.2624 10.9372
ltoes 15.3745
781
root 5.25893 16.9596 1.89385 7.76668 -14.7062 -6.77835
lowerback 21.5689 -0.552519 4.37891
upperback 4.80941 0.291438 1.30044
thorax -6.77355 0.0535832 -1.16596
lowerneck -14.7195 -0.622629 -2.68592
upperneck 38.1681 0.107957 -1.02442
head 16.0678 -0.564692 0.0315891
rclavicle 1.73937e-014 -1.74931e-014
rhumerus -34.3956 -8.18284 -17.1184
rradius 34.9394
rwrist 3.94635
rhand -19.3422 -45.8465
rfingers 7.12502
rthumb 6.97486 -75.7116
lclavicle 1.73937e-014 -1.74931e-014
lhumerus -35.529 7.19425 13.288
lradius 28.6726
lwrist 16.486
lhand -24.6639 -27.4233
lfingers 7.12502
lthumb 1.83613 2.54859
rfemur -100.478 0.55913 27.5005
rtibia 95.8117
rfoot 47.942 2.25543
rtoes -5.86342
lfemur -28.9562 4.62368 -24.2711
ltibia 41.055
lfoot -17.2362 10.9268
ltoes 15.6625
782
root 5.25815 16.9608 1.89198 7.79874 -14.6703 -6.81315
lowerback 21.5596 -0.558951 4.39746
upperback 4.78277 0.288751 1.30971
thorax -6.79782 0.0514098 -1.1657
lowerneck -14.665 -0.619777 -2.65894
upperneck 38.1622 0.100028 -1.02264
head 16.0512 -0.563722 0.0263762
rclavicle 1.40143e-014 -2.38542e-015
rhumerus -34.3597 -8.28113 -17.0606
rradius 34.8047
rwrist 4.06402
rhand -19.5966 -45.7409
rfingers 7.12502
rthumb 6.72922 -75.614
lclavicle 1.40143e-014 -2.38542e-015
lhumerus -35.5547 7.12413 13.3392
lradius 28.7658
lwrist 16.3959
lhand -24.8414 -28.549
lfingers 7.12502
lthumb 1.6647 1.42429
rfemur -100.513 0.564252 27.5344
rtibia 95.7892
rfoot 47.9011 2.08846
rtoes -5.96329
lfemur -28.9813 4.61332 -24.2309
ltibia 41.0455
lfoot -17.2218 10.9184
ltoes 15.4969
783
root 5.25799 16.9621 1.88835 7.85187 -14.6098 -6.79896
lowerback 21.532 -0.57117 4.37249
upperback 4.73416 0.268554 1.31067
thorax -6.83776 0.0411017 -1.14494
lowerneck -14.6017 -0.624741 -2.62741
upperneck 38.1961 0.0828995 -1.03289
head 16.0531 -0.56829 0.0131878
rclavicle -3.48867e-014 1.51076e-014
rhumerus -34.4 -8.07763 -17.104
rradius 34.8632
rwrist 3.83288
rhand -19.8847 -45.989
rfingers 7.12502
rthumb 6.45114 -75.8708
lclavicle -3.48867e-014 1.51076e-014
lhumerus -35.4905 7.23499 13.2891
lradius 28.5899
lwrist 16.2425
lhand -25.1072 -29.4214
lfingers 7.12502
lthumb 1.408 0.553721
rfemur -100.58 0.53491 27.5142
rtibia 95.7839
rfoot 47.8688 1.88969
rtoes -5.50857
lfemur -29.06 4.58293 -24.2431
ltibia 41.0167
lfoot -17.1892 10.9367
ltoes 15.1193
784
root 5.25981 16.9652 1.88948 7.82104 -14.4995 -6.77245
lowerback 21.4886 -0.622778 4.34403
upperback 4.7323 0.195012 1.33088
thorax -6.8211 0.00678331 -1.0872
lowerneck -14.5202 -0.590555 -2.53628
upperneck 38.178 0.155177 -1.17377
head 16.0235 -0.544652 -0.0512729
rclavicle 1.21259e-014 3.37934e-014
rhumerus -34.371 -7.85865 -17.1576
rradius 34.9017
rwrist 3.67777
rhand -19.8336 -46.2022
rfingers 7.12502
rthumb 6.50041 -76.0824
lclavicle 1.21259e-014 3.37934e-014
lhumerus -35.5245 7.25571 13.2855
lradius 28.4732
lwrist 16.2893
lhand -25.6001 -28.9654
lfingers 7.12502
lthumb 0.93201 1.01231
rfemur -100.572 0.401393 27.5178
rtibia 95.8044
rfoot 47.8287 2.27271
rtoes -5.62536
lfemur -29.0011 4.52716 -24.2708
ltibia 40.9622
lfoot -17.1502 10.9378
ltoes 15.1211
785
root 5.26301 16.9692 1.89289 7.73524 -14.3947 -6.7616
lowerback 21.413 -0.693225 4.36774
upperback 4.81806 0.100926 1.33329
thorax -6.69238 -0.0356476 -1.07346
lowerneck -14.5531 -0.556544 -2.43604
upperneck 38.1235 0.232874 -1.32342
head 16.0036 -0.518242 -0.120214
rclavicle -8.74653e-015 -1.64991e-014
rhumerus -34.2122 -8.05791 -17.1629
rradius 34.783
rwrist 3.87527
rhand -19.7283 -46.1488
rfingers 7.12502
rthumb 6.60207 -76.0259
lclavicle -8.74653e-015 -1.64991e-014
lhumerus -35.591 7.24949 13.3019
lradius 28.4644
lwrist 16.4246
lhand -26.0492 -28.1848
lfingers 7.12502
lthumb 0.498256 1.7944
rfemur -100.501 0.248271 27.5323
rtibia 95.8158
rfoot 47.8638 2.69943
rtoes -5.59306
lfemur -28.8428 4.5117 -24.292
ltibia 40.898
lfoot -17.1564 10.8995
ltoes 14.9997
786
root 5.2647 16.9727 1.89023 7.68136 -14.3892 -6.81303
lowerback 21.4586 -0.699981 4.4287
upperback 4.84623 0.106653 1.33443
thorax -6.68482 -0.0335357 -1.10841
lowerneck -14.5527 -0.603312 -2.50472
upperneck 38.0991 0.149475 -1.23334
head 15.9912 -0.549786 -0.0831664
rclavicle 5.1684e-014 -3.18055e-015
rhumerus -34.1896 -8.23145 -17.1377
rradius 34.7572
rwrist 4.01429
rhand -19.8415 -46.1012
rfingers 7.12502
rthumb 6.49278 -75.9817
lclavicle 5.1684e-014 -3.18055e-015
lhumerus -35.6639 7.10853 13.3679
lradius 28.6429
lwrist 16.5858
lhand -25.4867 -28.8108
lfingers 7.12502
lthumb 1.04152 1.16644
rfemur -100.417 0.248171 27.5776
rtibia 95.7786
rfoot 47.9328 2.68661
rtoes -5.16814
lfemur -28.7523 4.57043 -24.2387
ltibia 40.8477
lfoot -17.1469 10.8613
ltoes 14.8097
787
root 5.26386 16.9751 1.8891 7.64965 -14.5074 -6.89409
lowerback 21.4994 -0.648249 4.44907
upperback 4.81784 0.182528 1.34788
thorax -6.73324 0.00137086 -1.12545
lowerneck -14.3851 -0.628794 -2.511
upperneck 38.057 0.107018 -1.23731
head 15.929 -0.567914 -0.0900436
rclavicle 4.31363e-014 -2.38542e-015
rhumerus -34.2691 -7.99933 -17.1754
rradius 34.9649
rwrist 3.76166
rhand -19.6658 -46.6067
rfingers 7.12502
rthumb 6.66242 -76.4819
lclavicle 4.31363e-014 -2.38542e-015
lhumerus -35.6894 6.89213 13.4198
lradius 28.7896
lwrist 16.7643
lhand -24.9343 -28.3649
lfingers 7.12502
lthumb 1.57501 1.60907
rfemur -100.317 0.39878 27.6435
rtibia 95.7237
rfoot 47.926 2.45296
rtoes -5.02105
lfemur -28.7054 4.71158 -24.1476
ltibia 40.8257
lfoot -17.1459 10.8548
ltoes 14.8885
788
root 5.26294 16.9727 1.88978 7.62607 -14.6202 -6.84448
lowerback 21.4155 -0.602595 4.36688
upperback 4.83502 0.216006 1.32135
thorax -6.66937 0.0199794 -1.11652
lowerneck -14.2618 -0.612976 -2.40202
upperneck 37.983 0.155734 -1.40588
head 15.8613 -0.553978 -0.172587
rclavicle -3.926e-014 3.81667e-014
rhumerus -34.2741 -7.80626 -17.2235
rradius 35.1532
rwrist 3.55721
rhand -19.2914 -47.0343
rfingers 7.12502
rthumb 7.02384 -76.8977
lclavicle -3.926e-014 3.81667e-014
lhumerus -35.6744 6.82724 13.4159
lradius 28.7132
lwrist 16.7068
lhand -24.9057 -26.0853
lfingers 7.12502
lthumb 1.60259 3.88841
rfemur -100.297 0.515623 27.5779
rtibia 95.6923
rfoot 47.9374 2.59433
rtoes -5.51437
lfemur -28.7017 4.85586 -24.2123
ltibia 40.8316
lfoot -17.185 10.8587
ltoes 14.9421
789
root 5.26182 16.9683 1.887 7.59123 -14.6447 -6.73017
lowerback 21.4096 -0.601836 4.22763
upperback 4.87032 0.181691 1.28097
thorax -6.63035 0.00641211 -1.07201
lowerneck -14.2995 -0.619871 -2.46874
upperneck 37.8776 0.128664 -1.30571
head 15.8167 -0.559699 -0.12124
rclavicle 1.92821e-014 1.19271e-015
rhumerus -34.1502 -7.90034 -17.2213
rradius 35.0995
rwrist 3.63094
rhand -19.0062 -46.6537
rfingers 7.12502
rthumb 7.29917 -76.5079
lclavicle 1.92821e-014 1.19271e-015
lhumerus -35.7987 6.67786 13.4611
lradius 28.7406
lwrist 16.7138
lhand -24.6836 -26.03
lfingers 7.12502
lthumb 1.81712 3.94204
rfemur -100.328 0.550374 27.4438
rtibia 95.679
rfoot 47.9848 2.80221
rtoes -5.92471
lfemur -28.7123 4.97392 -24.3436
ltibia 40.8451
lfoot -17.1815 10.7813
ltoes 14.8513
790
root 5.26127 16.9679 1.88365 7.57426 -14.6377 -6.72055
lowerback 21.4494 -0.6327 4.19454
upperback 4.90649 0.13242 1.24881
thorax -6.61416 -0.016444 -1.07496
lowerneck -14.3769 -0.626291 -2.58882
upperneck 37.7574 0.0676357 -1.06787
head 15.7741 -0.568209 -0.00726272
rclavicle 1.98785e-014 -1.98785e-015
rhumerus -34.0502 -8.08453 -17.2447
rradius 34.9957
rwrist 3.83296
rhand -18.5545 -46.2391
rfingers 7.12502
rthumb 7.73517 -76.0776
lclavicle 1.98785e-014 -1.98785e-015
lhumerus -36.0194 6.37493 13.5266
lradius 29.0328
lwrist 17.0607
lhand -24.8106 -29.0974
lfingers 7.12502
lthumb 1.69448 0.875641
rfemur -100.331 0.561848 27.4246
rtibia 95.6578
rfoot 48.0548 2.72954
rtoes -5.6051
lfemur -28.7204 5.07077 -24.3524
ltibia 40.8606
lfoot -17.1657 10.62
ltoes 14.8687
791
root 5.26289 16.9714 1.88441 7.60349 -14.6245 -6.77808
lowerback 21.3772 -0.656992 4.29353
upperback 4.94714 0.114912 1.22792
thorax -6.53219 -0.0245377 -1.1495
lowerneck -14.4238 -0.634623 -2.62042
upperneck 37.7118 0.0386762 -0.993483
head 15.7624 -0.57392 0.025558
rclavicle 9.54166e-015 -1.39149e-014
rhumerus -34.0894 -8.07444 -17.2779
rradius 35.0043
rwrist 3.92241
rhand -18.3175 -46.4581
rfingers 7.12502
rthumb 7.96388 -76.2881
lclavicle 9.54166e-015 -1.39149e-014
lhumerus -36.1138 6.29119 13.5139
lradius 29.2314
lwrist 17.3245
lhand -25.0397 -30.2282
lfingers 7.12502
lthumb 1.47327 -0.253561
rfemur -100.312 0.535084 27.4872
rtibia 95.6249
rfoot 47.9905 2.83214
rtoes -5.71895
lfemur -28.7353 5.11953 -24.3036
ltibia 40.8668
lfoot -17.155 10.5391
ltoes 15.0002
